<mxfile host="app.diagrams.net" agent="Mozilla/5.0 (Windows NT 10.0; Win64; x64) AppleWebKit/537.36 (KHTML, like Gecko) Chrome/131.0.0.0 Safari/537.36" version="24.8.6">
  <diagram name="Page-1" id="sCRZOfa5llfuhyy0fq3j">
    <mxGraphModel dx="1864" dy="1766" grid="1" gridSize="10" guides="1" tooltips="1" connect="1" arrows="1" fold="1" page="1" pageScale="1" pageWidth="850" pageHeight="1100" math="0" shadow="0">
      <root>
        <mxCell id="0" />
        <mxCell id="1" parent="0" />
        <mxCell id="rnOau0pSZ9oVDO9ABHFv-1" value="" style="rounded=0;whiteSpace=wrap;html=1;" parent="1" vertex="1">
          <mxGeometry x="210" y="60" width="280" height="2620" as="geometry" />
        </mxCell>
        <mxCell id="rnOau0pSZ9oVDO9ABHFv-3" value="" style="rounded=0;whiteSpace=wrap;html=1;" parent="1" vertex="1">
          <mxGeometry x="245" y="385" width="60" height="20" as="geometry" />
        </mxCell>
        <mxCell id="rnOau0pSZ9oVDO9ABHFv-5" value="" style="rounded=0;whiteSpace=wrap;html=1;" parent="1" vertex="1">
          <mxGeometry x="240" y="205" width="230" height="160" as="geometry" />
        </mxCell>
        <mxCell id="rnOau0pSZ9oVDO9ABHFv-6" value="" style="rounded=0;whiteSpace=wrap;html=1;" parent="1" vertex="1">
          <mxGeometry x="360" y="490" width="70" height="30" as="geometry" />
        </mxCell>
        <mxCell id="rnOau0pSZ9oVDO9ABHFv-8" value="" style="rounded=0;whiteSpace=wrap;html=1;" parent="1" vertex="1">
          <mxGeometry x="265" y="490" width="70" height="30" as="geometry" />
        </mxCell>
        <mxCell id="rnOau0pSZ9oVDO9ABHFv-9" value="" style="rounded=0;whiteSpace=wrap;html=1;" parent="1" vertex="1">
          <mxGeometry x="235" y="120" width="235" height="80" as="geometry" />
        </mxCell>
        <mxCell id="rnOau0pSZ9oVDO9ABHFv-10" value="" style="rounded=0;whiteSpace=wrap;html=1;" parent="1" vertex="1">
          <mxGeometry x="255" y="130" width="70" height="60" as="geometry" />
        </mxCell>
        <mxCell id="rnOau0pSZ9oVDO9ABHFv-11" value="" style="rounded=0;whiteSpace=wrap;html=1;" parent="1" vertex="1">
          <mxGeometry x="372.5" y="130" width="75" height="60" as="geometry" />
        </mxCell>
        <mxCell id="rnOau0pSZ9oVDO9ABHFv-12" value="" style="rounded=0;whiteSpace=wrap;html=1;" parent="1" vertex="1">
          <mxGeometry x="230" y="570" width="240" height="150" as="geometry" />
        </mxCell>
        <mxCell id="rnOau0pSZ9oVDO9ABHFv-13" value="" style="rounded=0;whiteSpace=wrap;html=1;" parent="1" vertex="1">
          <mxGeometry x="275" y="590" width="150" height="10" as="geometry" />
        </mxCell>
        <mxCell id="rnOau0pSZ9oVDO9ABHFv-14" value="" style="rounded=0;whiteSpace=wrap;html=1;" parent="1" vertex="1">
          <mxGeometry x="275" y="610" width="150" height="10" as="geometry" />
        </mxCell>
        <mxCell id="rnOau0pSZ9oVDO9ABHFv-15" value="" style="rounded=0;whiteSpace=wrap;html=1;" parent="1" vertex="1">
          <mxGeometry x="275" y="630" width="150" height="10" as="geometry" />
        </mxCell>
        <mxCell id="rnOau0pSZ9oVDO9ABHFv-19" value="" style="rounded=0;whiteSpace=wrap;html=1;" parent="1" vertex="1">
          <mxGeometry x="275" y="650" width="150" height="10" as="geometry" />
        </mxCell>
        <mxCell id="rnOau0pSZ9oVDO9ABHFv-20" value="" style="rounded=0;whiteSpace=wrap;html=1;" parent="1" vertex="1">
          <mxGeometry x="275" y="670" width="150" height="10" as="geometry" />
        </mxCell>
        <mxCell id="rnOau0pSZ9oVDO9ABHFv-21" value="" style="rounded=0;whiteSpace=wrap;html=1;" parent="1" vertex="1">
          <mxGeometry x="275" y="690" width="150" height="10" as="geometry" />
        </mxCell>
        <mxCell id="rnOau0pSZ9oVDO9ABHFv-22" value="" style="rounded=0;whiteSpace=wrap;html=1;" parent="1" vertex="1">
          <mxGeometry x="235" y="740" width="235" height="140" as="geometry" />
        </mxCell>
        <mxCell id="rnOau0pSZ9oVDO9ABHFv-23" value="" style="rounded=0;whiteSpace=wrap;html=1;" parent="1" vertex="1">
          <mxGeometry x="260" y="750" width="190" height="40" as="geometry" />
        </mxCell>
        <mxCell id="rnOau0pSZ9oVDO9ABHFv-24" value="" style="rounded=0;whiteSpace=wrap;html=1;" parent="1" vertex="1">
          <mxGeometry x="260" y="810" width="190" height="40" as="geometry" />
        </mxCell>
        <mxCell id="rnOau0pSZ9oVDO9ABHFv-25" value="Image" style="text;html=1;align=center;verticalAlign=middle;whiteSpace=wrap;rounded=0;" parent="1" vertex="1">
          <mxGeometry x="322.5" y="270" width="60" height="30" as="geometry" />
        </mxCell>
        <mxCell id="rnOau0pSZ9oVDO9ABHFv-26" value="Id" style="text;html=1;align=center;verticalAlign=middle;whiteSpace=wrap;rounded=0;" parent="1" vertex="1">
          <mxGeometry x="245" y="380" width="60" height="30" as="geometry" />
        </mxCell>
        <mxCell id="rnOau0pSZ9oVDO9ABHFv-27" value="Name + Form" style="text;html=1;align=center;verticalAlign=middle;whiteSpace=wrap;rounded=0;" parent="1" vertex="1">
          <mxGeometry x="297.5" y="430" width="110" height="30" as="geometry" />
        </mxCell>
        <mxCell id="rnOau0pSZ9oVDO9ABHFv-28" value="Type1" style="text;html=1;align=center;verticalAlign=middle;whiteSpace=wrap;rounded=0;" parent="1" vertex="1">
          <mxGeometry x="270" y="490" width="60" height="30" as="geometry" />
        </mxCell>
        <mxCell id="rnOau0pSZ9oVDO9ABHFv-29" value="Form1" style="text;html=1;align=center;verticalAlign=middle;whiteSpace=wrap;rounded=0;" parent="1" vertex="1">
          <mxGeometry x="260" y="145" width="60" height="30" as="geometry" />
        </mxCell>
        <mxCell id="rnOau0pSZ9oVDO9ABHFv-30" value="Form2" style="text;html=1;align=center;verticalAlign=middle;whiteSpace=wrap;rounded=0;" parent="1" vertex="1">
          <mxGeometry x="380" y="140" width="60" height="30" as="geometry" />
        </mxCell>
        <mxCell id="rnOau0pSZ9oVDO9ABHFv-31" value="Type2" style="text;html=1;align=center;verticalAlign=middle;whiteSpace=wrap;rounded=0;" parent="1" vertex="1">
          <mxGeometry x="365" y="490" width="60" height="30" as="geometry" />
        </mxCell>
        <mxCell id="rnOau0pSZ9oVDO9ABHFv-32" value="Stats" style="text;html=1;align=center;verticalAlign=middle;whiteSpace=wrap;rounded=0;" parent="1" vertex="1">
          <mxGeometry x="310" y="700" width="60" height="30" as="geometry" />
        </mxCell>
        <mxCell id="rnOau0pSZ9oVDO9ABHFv-33" value="Ability" style="text;html=1;align=center;verticalAlign=middle;whiteSpace=wrap;rounded=0;" parent="1" vertex="1">
          <mxGeometry x="320" y="755" width="60" height="30" as="geometry" />
        </mxCell>
        <mxCell id="rnOau0pSZ9oVDO9ABHFv-34" value="Ability" style="text;html=1;align=center;verticalAlign=middle;whiteSpace=wrap;rounded=0;" parent="1" vertex="1">
          <mxGeometry x="320" y="815" width="60" height="30" as="geometry" />
        </mxCell>
        <mxCell id="rnOau0pSZ9oVDO9ABHFv-35" value="" style="rounded=0;whiteSpace=wrap;html=1;" parent="1" vertex="1">
          <mxGeometry x="235" y="900" width="235" height="300" as="geometry" />
        </mxCell>
        <mxCell id="rnOau0pSZ9oVDO9ABHFv-39" style="edgeStyle=orthogonalEdgeStyle;rounded=0;orthogonalLoop=1;jettySize=auto;html=1;exitX=0.5;exitY=1;exitDx=0;exitDy=0;entryX=0.5;entryY=0;entryDx=0;entryDy=0;" parent="1" source="rnOau0pSZ9oVDO9ABHFv-36" target="rnOau0pSZ9oVDO9ABHFv-37" edge="1">
          <mxGeometry relative="1" as="geometry" />
        </mxCell>
        <mxCell id="rnOau0pSZ9oVDO9ABHFv-36" value="" style="ellipse;whiteSpace=wrap;html=1;" parent="1" vertex="1">
          <mxGeometry x="305" y="920" width="80" height="70" as="geometry" />
        </mxCell>
        <mxCell id="rnOau0pSZ9oVDO9ABHFv-40" style="edgeStyle=orthogonalEdgeStyle;rounded=0;orthogonalLoop=1;jettySize=auto;html=1;exitX=0.5;exitY=1;exitDx=0;exitDy=0;entryX=0.5;entryY=0;entryDx=0;entryDy=0;" parent="1" source="rnOau0pSZ9oVDO9ABHFv-37" target="rnOau0pSZ9oVDO9ABHFv-38" edge="1">
          <mxGeometry relative="1" as="geometry" />
        </mxCell>
        <mxCell id="rnOau0pSZ9oVDO9ABHFv-37" value="" style="ellipse;whiteSpace=wrap;html=1;" parent="1" vertex="1">
          <mxGeometry x="305" y="1015" width="80" height="70" as="geometry" />
        </mxCell>
        <mxCell id="rnOau0pSZ9oVDO9ABHFv-38" value="" style="ellipse;whiteSpace=wrap;html=1;" parent="1" vertex="1">
          <mxGeometry x="305" y="1110" width="80" height="70" as="geometry" />
        </mxCell>
        <mxCell id="rnOau0pSZ9oVDO9ABHFv-41" value="" style="rounded=0;whiteSpace=wrap;html=1;" parent="1" vertex="1">
          <mxGeometry x="225" y="70" width="255" height="40" as="geometry" />
        </mxCell>
        <mxCell id="rnOau0pSZ9oVDO9ABHFv-42" value="Page Nav" style="text;html=1;align=center;verticalAlign=middle;whiteSpace=wrap;rounded=0;" parent="1" vertex="1">
          <mxGeometry x="320" y="75" width="60" height="30" as="geometry" />
        </mxCell>
        <mxCell id="rnOau0pSZ9oVDO9ABHFv-43" value="" style="rounded=0;whiteSpace=wrap;html=1;" parent="1" vertex="1">
          <mxGeometry x="235" y="1230" width="235" height="160" as="geometry" />
        </mxCell>
        <mxCell id="rnOau0pSZ9oVDO9ABHFv-44" value="" style="rounded=0;whiteSpace=wrap;html=1;" parent="1" vertex="1">
          <mxGeometry x="250" y="1240" width="200" height="60" as="geometry" />
        </mxCell>
        <mxCell id="rnOau0pSZ9oVDO9ABHFv-45" value="" style="rounded=0;whiteSpace=wrap;html=1;" parent="1" vertex="1">
          <mxGeometry x="250" y="1310" width="200" height="60" as="geometry" />
        </mxCell>
        <mxCell id="rnOau0pSZ9oVDO9ABHFv-46" value="Type Context" style="text;html=1;align=center;verticalAlign=middle;whiteSpace=wrap;rounded=0;" parent="1" vertex="1">
          <mxGeometry x="305" y="1270" width="75" height="30" as="geometry" />
        </mxCell>
        <mxCell id="rnOau0pSZ9oVDO9ABHFv-47" value="" style="rounded=0;whiteSpace=wrap;html=1;" parent="1" vertex="1">
          <mxGeometry x="235" y="1400" width="235" height="280" as="geometry" />
        </mxCell>
        <mxCell id="rnOau0pSZ9oVDO9ABHFv-48" value="Other Data" style="text;html=1;align=center;verticalAlign=middle;whiteSpace=wrap;rounded=0;" parent="1" vertex="1">
          <mxGeometry x="320" y="1480" width="70" height="30" as="geometry" />
        </mxCell>
        <mxCell id="rnOau0pSZ9oVDO9ABHFv-49" value="" style="rounded=0;whiteSpace=wrap;html=1;" parent="1" vertex="1">
          <mxGeometry x="230" y="1730" width="250" height="570" as="geometry" />
        </mxCell>
        <mxCell id="rnOau0pSZ9oVDO9ABHFv-50" value="Moves" style="text;html=1;align=center;verticalAlign=middle;whiteSpace=wrap;rounded=0;" parent="1" vertex="1">
          <mxGeometry x="250" y="1740" width="60" height="30" as="geometry" />
        </mxCell>
        <mxCell id="rnOau0pSZ9oVDO9ABHFv-51" value="" style="rounded=0;whiteSpace=wrap;html=1;" parent="1" vertex="1">
          <mxGeometry x="247.5" y="1820" width="210" height="460" as="geometry" />
        </mxCell>
        <mxCell id="rnOau0pSZ9oVDO9ABHFv-52" value="" style="rounded=0;whiteSpace=wrap;html=1;" parent="1" vertex="1">
          <mxGeometry x="260" y="1790" width="55" height="30" as="geometry" />
        </mxCell>
        <mxCell id="rnOau0pSZ9oVDO9ABHFv-53" value="" style="rounded=0;whiteSpace=wrap;html=1;" parent="1" vertex="1">
          <mxGeometry x="320" y="1790" width="55" height="30" as="geometry" />
        </mxCell>
        <mxCell id="rnOau0pSZ9oVDO9ABHFv-54" value="" style="rounded=0;whiteSpace=wrap;html=1;" parent="1" vertex="1">
          <mxGeometry x="385" y="1790" width="55" height="30" as="geometry" />
        </mxCell>
        <mxCell id="rnOau0pSZ9oVDO9ABHFv-55" value="Select Gen" style="rounded=0;whiteSpace=wrap;html=1;" parent="1" vertex="1">
          <mxGeometry x="375" y="1735" width="90" height="40" as="geometry" />
        </mxCell>
        <mxCell id="rnOau0pSZ9oVDO9ABHFv-56" value="" style="rounded=0;whiteSpace=wrap;html=1;" parent="1" vertex="1">
          <mxGeometry x="262.5" y="1840" width="180" height="50" as="geometry" />
        </mxCell>
        <mxCell id="rnOau0pSZ9oVDO9ABHFv-57" value="Lv" style="rounded=0;whiteSpace=wrap;html=1;" parent="1" vertex="1">
          <mxGeometry x="270" y="1850" width="20" height="30" as="geometry" />
        </mxCell>
        <mxCell id="rnOau0pSZ9oVDO9ABHFv-58" value="Name" style="rounded=0;whiteSpace=wrap;html=1;" parent="1" vertex="1">
          <mxGeometry x="295" y="1850" width="35" height="30" as="geometry" />
        </mxCell>
        <mxCell id="rnOau0pSZ9oVDO9ABHFv-59" value="Power" style="rounded=0;whiteSpace=wrap;html=1;" parent="1" vertex="1">
          <mxGeometry x="335" y="1850" width="40" height="30" as="geometry" />
        </mxCell>
        <mxCell id="rnOau0pSZ9oVDO9ABHFv-60" value="type + dmg type" style="rounded=0;whiteSpace=wrap;html=1;" parent="1" vertex="1">
          <mxGeometry x="380" y="1850" width="60" height="30" as="geometry" />
        </mxCell>
        <mxCell id="rnOau0pSZ9oVDO9ABHFv-61" value="" style="rounded=0;whiteSpace=wrap;html=1;" parent="1" vertex="1">
          <mxGeometry x="230" y="2330" width="230" height="230" as="geometry" />
        </mxCell>
        <mxCell id="rnOau0pSZ9oVDO9ABHFv-62" value="Sprites" style="text;html=1;align=center;verticalAlign=middle;whiteSpace=wrap;rounded=0;" parent="1" vertex="1">
          <mxGeometry x="245" y="2340" width="60" height="30" as="geometry" />
        </mxCell>
        <mxCell id="rnOau0pSZ9oVDO9ABHFv-63" value="Select Gen" style="rounded=0;whiteSpace=wrap;html=1;" parent="1" vertex="1">
          <mxGeometry x="357.5" y="2340" width="85" height="30" as="geometry" />
        </mxCell>
        <mxCell id="rnOau0pSZ9oVDO9ABHFv-64" value="Normal" style="rounded=0;whiteSpace=wrap;html=1;" parent="1" vertex="1">
          <mxGeometry x="282.5" y="2380" width="120" height="60" as="geometry" />
        </mxCell>
        <mxCell id="rnOau0pSZ9oVDO9ABHFv-65" value="Shiny" style="rounded=0;whiteSpace=wrap;html=1;" parent="1" vertex="1">
          <mxGeometry x="282.5" y="2460" width="120" height="60" as="geometry" />
        </mxCell>
        <mxCell id="rnOau0pSZ9oVDO9ABHFv-76" value="" style="rounded=0;whiteSpace=wrap;html=1;" parent="1" vertex="1">
          <mxGeometry x="-600" y="45" width="330" height="925" as="geometry" />
        </mxCell>
        <mxCell id="rnOau0pSZ9oVDO9ABHFv-77" value="" style="rounded=0;whiteSpace=wrap;html=1;" parent="1" vertex="1">
          <mxGeometry x="-580" y="75" width="290" height="325" as="geometry" />
        </mxCell>
        <mxCell id="rnOau0pSZ9oVDO9ABHFv-78" value="No." style="rounded=0;whiteSpace=wrap;html=1;" parent="1" vertex="1">
          <mxGeometry x="-560" y="140" width="80" height="30" as="geometry" />
        </mxCell>
        <mxCell id="rnOau0pSZ9oVDO9ABHFv-79" value="&lt;font style=&quot;font-size: 18px;&quot;&gt;&lt;b&gt;Name&lt;/b&gt;&lt;/font&gt;" style="rounded=0;whiteSpace=wrap;html=1;" parent="1" vertex="1">
          <mxGeometry x="-560" y="90" width="140" height="40" as="geometry" />
        </mxCell>
        <mxCell id="rnOau0pSZ9oVDO9ABHFv-81" value="Types" style="rounded=0;whiteSpace=wrap;html=1;" parent="1" vertex="1">
          <mxGeometry x="-560" y="180" width="150" height="40" as="geometry" />
        </mxCell>
        <mxCell id="rnOau0pSZ9oVDO9ABHFv-82" value="Abilities" style="rounded=0;whiteSpace=wrap;html=1;" parent="1" vertex="1">
          <mxGeometry x="-560" y="230" width="260" height="70" as="geometry" />
        </mxCell>
        <mxCell id="rnOau0pSZ9oVDO9ABHFv-83" value="" style="rounded=0;whiteSpace=wrap;html=1;" parent="1" vertex="1">
          <mxGeometry x="-580" y="420" width="300" height="280" as="geometry" />
        </mxCell>
        <mxCell id="rnOau0pSZ9oVDO9ABHFv-84" value="weight" style="rounded=0;whiteSpace=wrap;html=1;" parent="1" vertex="1">
          <mxGeometry x="-560" y="310" width="160" height="30" as="geometry" />
        </mxCell>
        <mxCell id="rnOau0pSZ9oVDO9ABHFv-85" value="height" style="rounded=0;whiteSpace=wrap;html=1;" parent="1" vertex="1">
          <mxGeometry x="-560" y="355" width="160" height="30" as="geometry" />
        </mxCell>
        <mxCell id="rnOau0pSZ9oVDO9ABHFv-86" value="&lt;b&gt;Training&lt;/b&gt;" style="rounded=0;whiteSpace=wrap;html=1;" parent="1" vertex="1">
          <mxGeometry x="-560" y="430" width="150" height="40" as="geometry" />
        </mxCell>
        <mxCell id="rnOau0pSZ9oVDO9ABHFv-87" value="capture-rate" style="rounded=0;whiteSpace=wrap;html=1;" parent="1" vertex="1">
          <mxGeometry x="-560" y="490" width="150" height="40" as="geometry" />
        </mxCell>
        <mxCell id="rnOau0pSZ9oVDO9ABHFv-88" value="growth-rate" style="rounded=0;whiteSpace=wrap;html=1;" parent="1" vertex="1">
          <mxGeometry x="-560" y="540" width="160" height="50" as="geometry" />
        </mxCell>
        <mxCell id="rnOau0pSZ9oVDO9ABHFv-89" value="base_exp" style="rounded=0;whiteSpace=wrap;html=1;" parent="1" vertex="1">
          <mxGeometry x="-560" y="605" width="170" height="35" as="geometry" />
        </mxCell>
        <mxCell id="rnOau0pSZ9oVDO9ABHFv-90" value="EV" style="rounded=0;whiteSpace=wrap;html=1;" parent="1" vertex="1">
          <mxGeometry x="-560" y="660" width="140" height="30" as="geometry" />
        </mxCell>
        <mxCell id="rnOau0pSZ9oVDO9ABHFv-93" value="" style="rounded=0;whiteSpace=wrap;html=1;" parent="1" vertex="1">
          <mxGeometry x="-580" y="720" width="290" height="240" as="geometry" />
        </mxCell>
        <mxCell id="rnOau0pSZ9oVDO9ABHFv-94" value="&lt;b&gt;Breeding&lt;/b&gt;" style="rounded=0;whiteSpace=wrap;html=1;" parent="1" vertex="1">
          <mxGeometry x="-565" y="730" width="150" height="40" as="geometry" />
        </mxCell>
        <mxCell id="rnOau0pSZ9oVDO9ABHFv-95" value="Egg group" style="rounded=0;whiteSpace=wrap;html=1;" parent="1" vertex="1">
          <mxGeometry x="-565" y="785" width="120" height="35" as="geometry" />
        </mxCell>
        <mxCell id="rnOau0pSZ9oVDO9ABHFv-97" value="Gender rate" style="rounded=0;whiteSpace=wrap;html=1;" parent="1" vertex="1">
          <mxGeometry x="-565" y="840" width="120" height="35" as="geometry" />
        </mxCell>
        <mxCell id="rnOau0pSZ9oVDO9ABHFv-98" value="hatch_counter / egg cycle" style="rounded=0;whiteSpace=wrap;html=1;" parent="1" vertex="1">
          <mxGeometry x="-565" y="900" width="120" height="35" as="geometry" />
        </mxCell>
        <mxCell id="oALkAbYDd9stv5IRRhGu-1" value="" style="rounded=0;whiteSpace=wrap;html=1;" vertex="1" parent="1">
          <mxGeometry x="-680" y="-890" width="340" height="590" as="geometry" />
        </mxCell>
        <mxCell id="oALkAbYDd9stv5IRRhGu-5" value="" style="edgeStyle=orthogonalEdgeStyle;rounded=0;orthogonalLoop=1;jettySize=auto;html=1;" edge="1" parent="1" source="oALkAbYDd9stv5IRRhGu-2" target="oALkAbYDd9stv5IRRhGu-4">
          <mxGeometry relative="1" as="geometry" />
        </mxCell>
        <mxCell id="oALkAbYDd9stv5IRRhGu-2" value="Learn Method" style="rounded=1;whiteSpace=wrap;html=1;" vertex="1" parent="1">
          <mxGeometry x="-650" y="-850" width="110" height="50" as="geometry" />
        </mxCell>
        <mxCell id="oALkAbYDd9stv5IRRhGu-3" value="Generations" style="rounded=1;whiteSpace=wrap;html=1;" vertex="1" parent="1">
          <mxGeometry x="-487.5" y="-850" width="97.5" height="50" as="geometry" />
        </mxCell>
        <mxCell id="oALkAbYDd9stv5IRRhGu-4" value="Level UP&lt;div&gt;Machine&lt;/div&gt;&lt;div&gt;Egg&lt;/div&gt;&lt;div&gt;Tutor&lt;/div&gt;&lt;div&gt;Spcial&lt;/div&gt;" style="whiteSpace=wrap;html=1;rounded=1;" vertex="1" parent="1">
          <mxGeometry x="-840" y="-872.5" width="120" height="95" as="geometry" />
        </mxCell>
        <mxCell id="oALkAbYDd9stv5IRRhGu-6" value="" style="rounded=1;whiteSpace=wrap;html=1;" vertex="1" parent="1">
          <mxGeometry x="-655" y="-775" width="285" height="445" as="geometry" />
        </mxCell>
        <mxCell id="oALkAbYDd9stv5IRRhGu-7" value="&lt;font style=&quot;font-size: 8px;&quot;&gt;Special Info: lv&lt;/font&gt;" style="rounded=1;whiteSpace=wrap;html=1;" vertex="1" parent="1">
          <mxGeometry x="-640" y="-760" width="60" height="40" as="geometry" />
        </mxCell>
        <mxCell id="oALkAbYDd9stv5IRRhGu-8" value="Name" style="rounded=1;whiteSpace=wrap;html=1;" vertex="1" parent="1">
          <mxGeometry x="-580" y="-760" width="40" height="40" as="geometry" />
        </mxCell>
        <mxCell id="oALkAbYDd9stv5IRRhGu-9" value="Pow/Acc" style="rounded=1;whiteSpace=wrap;html=1;" vertex="1" parent="1">
          <mxGeometry x="-540" y="-760" width="70" height="40" as="geometry" />
        </mxCell>
        <mxCell id="oALkAbYDd9stv5IRRhGu-10" value="Type/class" style="rounded=1;whiteSpace=wrap;html=1;" vertex="1" parent="1">
          <mxGeometry x="-470" y="-760" width="80" height="40" as="geometry" />
        </mxCell>
      </root>
    </mxGraphModel>
  </diagram>
</mxfile>
